<?xml version="1.0" encoding="UTF-8" standalone="no"?>
<!-- Created with Inkscape (http://www.inkscape.org/) -->

<svg
   xmlns:dc="http://purl.org/dc/elements/1.1/"
   xmlns:cc="http://creativecommons.org/ns#"
   xmlns:rdf="http://www.w3.org/1999/02/22-rdf-syntax-ns#"
   xmlns:svg="http://www.w3.org/2000/svg"
   xmlns="http://www.w3.org/2000/svg"
   xmlns:sodipodi="http://sodipodi.sourceforge.net/DTD/sodipodi-0.dtd"
   xmlns:inkscape="http://www.inkscape.org/namespaces/inkscape"
   width="240.09"
   height="196.36"
   id="svg2"
   version="1.1"
   inkscape:version="0.48.5 r10040"
   sodipodi:docname="404.svg">
  <defs
     id="defs4" />
  <sodipodi:namedview
     id="base"
     pagecolor="#ffffff"
     bordercolor="#666666"
     borderopacity="1.0"
     inkscape:pageopacity="0.0"
     inkscape:pageshadow="2"
     inkscape:zoom="0.98994949"
     inkscape:cx="455.22464"
     inkscape:cy="242.57246"
     inkscape:document-units="px"
     inkscape:current-layer="layer1"
     showgrid="false"
     inkscape:window-width="1440"
     inkscape:window-height="875"
     inkscape:window-x="0"
     inkscape:window-y="0"
     inkscape:window-maximized="1" />
  <metadata
     id="metadata7">
    <rdf:RDF>
      <cc:Work
         rdf:about="">
        <dc:format>image/svg+xml</dc:format>
        <dc:type
           rdf:resource="http://purl.org/dc/dcmitype/StillImage" />
        <dc:title></dc:title>
      </cc:Work>
    </rdf:RDF>
  </metadata>
  <g
     inkscape:label="Layer 1"
     inkscape:groupmode="layer"
     id="layer1"
     transform="translate(0,-856.00119)">
    <g
       id="g3001"
       transform="translate(-49.497475,141.42136)">
      <path
         inkscape:connector-curvature="0"
         id="path2985"
         d="m 133.87198,725.07276 c -3.80788,0.39583 -7.31327,1.81124 -10.90189,3.03046 -0.99108,0.33672 -1.95974,0.7519 -2.97323,1.01015 -0.3205,0.0817 -0.69561,-0.15058 -0.99109,0 -2.26176,1.15264 -2.73029,2.27448 -4.9554,3.03046 -1.29221,0.43903 -2.65461,0.62875 -3.96432,1.01015 -1.00449,0.29253 -1.95974,0.75191 -2.97324,1.01016 -0.3205,0.0817 -0.6956,-0.15059 -0.99108,0 -1.06538,0.54294 -1.86731,1.56941 -2.97324,2.0203 -0.61347,0.25011 -1.35535,-0.21296 -1.98216,0 -0.44323,0.15059 -0.57321,0.79719 -0.99108,1.01015 -2.88309,1.46929 -3.76213,0.72569 -6.93756,2.02031 -2.05763,0.83888 -3.92137,2.11308 -5.94649,3.03046 -0.95465,0.43245 -2.00327,0.61469 -2.97324,1.01015 -0.68587,0.27963 -1.29629,0.73052 -1.98216,1.01015 -0.96997,0.39546 -2.07742,0.46232 -2.97324,1.01015 -4.9554,3.03046 0,1.01016 -2.97324,3.03046 -6.9175,4.70042 4.87262,-4.4824 -4.9554,3.03046 -0.37376,0.28571 -0.60235,0.74601 -0.99108,1.01015 -0.61463,0.41765 -1.40532,0.53981 -1.98216,1.01015 -2.91298,2.37524 -2.65347,2.37864 -3.96432,5.05077 -0.33035,0.67343 -0.54785,1.41796 -0.99108,2.0203 -0.56064,0.76191 -1.42152,1.2584 -1.98215,2.02031 -0.76897,1.04502 -1.73233,4.03215 -1.98217,5.05076 -0.0802,0.32666 0.18326,0.72999 0,1.01015 -0.5183,0.79243 -1.63513,1.13604 -1.98215,2.02031 -0.36809,0.9379 0.16292,2.03405 0,3.03046 -0.17176,1.0503 -0.7862,1.98634 -0.99109,3.03045 -0.12958,0.66036 0.0819,1.35207 0,2.02031 -0.24924,2.03235 -0.80915,4.02115 -0.99108,6.06091 -0.23927,2.68268 0,5.38748 0,8.08122 0,4.71405 0,9.42809 0,14.14214 0,3.03046 0,6.06091 0,9.09137 0,1.00966 -0.21197,4.18654 0,5.05077 0.98395,4.0115 3.37601,7.3555 4.9554,11.11167 0.41153,0.9787 0.52389,2.07808 0.99109,3.03046 0.53269,1.08588 1.36933,1.98942 1.98215,3.03046 0.38007,0.64562 0.61102,1.37468 0.99108,2.0203 1.22566,2.08209 2.64288,4.04061 3.96432,6.06092 2.50664,3.83231 4.86823,7.68045 7.92864,11.11168 1.88564,2.11411 4.33896,3.72025 5.94648,6.06091 0.78112,1.13736 0.0941,2.99579 0.99108,4.04061 1.56873,1.82734 4.01986,2.61247 5.94649,4.04061 13.89313,11.3284 -3.62778,-2.58831 9.91079,7.07107 1.73296,1.23641 3.06339,3.0764 4.95541,4.04061 1.50667,0.76783 3.37814,0.4073 4.9554,1.01015 1.11529,0.42629 1.93905,1.41797 2.97325,2.02031 1.28275,0.74711 2.58097,1.49157 3.96432,2.0203 1.27537,0.48748 2.6721,0.57113 3.96432,1.01016 1.68774,0.5734 3.22947,1.58052 4.9554,2.0203 2.26624,0.57747 4.68044,0.39667 6.93756,1.01015 10.05938,2.73413 5.3179,3.22601 14.86621,5.05077 14.90224,2.84794 2.94749,-0.60872 18.83051,1.01015 30.02424,3.0602 -9.13717,0.54983 18.83053,5.05076 3.26318,0.52515 6.62535,-0.35249 9.91081,0 3.02903,0.32498 5.89069,1.69532 8.91972,2.02031 3.28544,0.35249 6.6072,0 9.91081,0 5.61611,0 11.23223,0 16.84836,0 3.63396,0 7.26791,0 10.90188,0 0.99108,0 1.98216,0 2.97324,0 1.32144,0 2.71069,0.42591 3.96432,0 0.88645,-0.30117 1.18092,-1.53031 1.98216,-2.02031 0.89581,-0.54783 1.98216,-0.67343 2.97325,-1.01015 0.99107,-0.33672 1.98215,-0.67344 2.97324,-1.01015 1.98215,-0.67344 4.07768,-1.06793 5.94648,-2.02031 0.83575,-0.42592 1.23464,-1.44888 1.98216,-2.0203 0.59096,-0.45176 1.40533,-0.53981 1.98216,-1.01016 1.09447,-0.89242 1.90907,-2.10075 2.97324,-3.03045 1.25414,-1.09567 2.79632,-1.83999 3.96432,-3.03046 1.04469,-1.0648 1.05923,-2.86474 1.98216,-4.04061 0.87557,-1.11553 2.19577,-1.84182 2.97324,-3.03046 1.30449,-1.99439 0.99108,-3.8577 0.99108,-6.06091 0,-11.59958 -0.40062,0.838 0.99109,-9.09138 0.0436,-0.31107 -0.0449,-5.92357 0,-6.06091 0.37666,-1.15175 1.53977,-1.90324 1.98215,-3.03046 0.24539,-0.62527 -0.24539,-1.39504 0,-2.02031 0.44238,-1.12722 1.53979,-1.90323 1.98217,-3.03045 0.24537,-0.62527 0,-1.34687 0,-2.02031 0,-2.69374 0,-5.38748 0,-8.08122 0,-4.71404 0,-9.42809 0,-14.14213 0,-1.68359 0.40062,-3.41745 0,-5.05077 -0.28889,-1.1778 -1.36933,-1.98941 -1.98217,-3.03045 -1.09371,-1.85793 -1.27306,-2.88253 -1.98215,-5.05077 -0.33037,-1.01015 -0.41159,-2.14449 -0.99109,-3.03046 -0.77747,-1.18864 -2.19578,-1.84181 -2.97324,-3.03045 -0.57949,-0.88597 -0.62426,-2.03346 -0.99108,-3.03046 -0.62466,-1.69783 -1.25962,-3.39377 -1.98216,-5.05076 -0.60003,-1.37606 -1.32144,-2.69374 -1.98216,-4.04061 -0.99108,-2.02031 -1.83306,-4.12404 -2.97324,-6.06092 -0.61283,-1.04104 -1.26749,-2.05921 -1.98216,-3.03046 -0.28032,-0.38095 -0.78214,-0.58423 -0.99108,-1.01015 -0.4672,-0.95238 -0.52388,-2.07808 -0.99108,-3.03046 -0.20894,-0.42591 -0.73192,-0.61393 -0.99109,-1.01015 -0.40975,-0.62647 -0.58131,-1.39383 -0.99107,-2.0203 -0.77747,-1.18865 -2.13228,-1.8876 -2.97325,-3.03046 -4.22687,-5.74428 3.09568,2.14509 -2.97323,-4.04061 -0.99109,-1.01015 -2.34644,-1.75271 -2.97324,-3.03046 -0.29549,-0.60234 0.29548,-1.41797 0,-2.0203 -0.79241,-1.61532 -2.97371,-2.52609 -3.96432,-4.04061 -0.40977,-0.62647 -0.58133,-1.39384 -0.99109,-2.02031 -0.25916,-0.39621 -0.66072,-0.67344 -0.99108,-1.01015 -1.32144,-1.34687 -2.64288,-2.69374 -3.96432,-4.04061 -0.66072,-0.67344 -1.39845,-1.27662 -1.98216,-2.02031 -0.53096,-0.67647 -1.81076,-3.25071 -2.97324,-4.04061 -1.22928,-0.83529 -2.73504,-1.18501 -3.96432,-2.0203 -1.37438,-0.93389 -2.67448,-1.97873 -3.96432,-3.03046 -0.36482,-0.29747 -0.57321,-0.79719 -0.99108,-1.01015 -0.9344,-0.47619 -2.07743,-0.46232 -2.97324,-1.01016 -0.80124,-0.48999 -1.32144,-1.34687 -1.98217,-2.0203 -0.33035,-0.33672 -0.5732,-0.79719 -0.99108,-1.01015 -0.29548,-0.15059 -0.69559,0.15058 -0.99107,0 -0.83576,-0.42592 -1.2047,-1.49202 -1.98217,-2.02031 -0.61464,-0.41765 -1.36751,-0.5925 -1.98216,-1.01015 -1.20753,-0.82051 -0.77463,-1.19979 -1.98216,-2.02031 -2.59794,-1.76529 -1.73196,-0.37756 -4.9554,-2.0203 -2.26175,-1.15264 -2.73029,-2.27448 -4.9554,-3.03046 -0.31341,-0.10648 -0.6956,0.15059 -0.99108,0 -0.41787,-0.21296 -0.54785,-0.85957 -0.99108,-1.01015 -0.62681,-0.21296 -1.34116,0.16333 -1.98216,0 -0.71666,-0.18261 -1.28136,-0.77206 -1.98216,-1.01015 -0.31341,-0.10648 -0.66072,0 -0.99108,0 -0.99108,-0.33672 -2.03885,-0.53397 -2.97325,-1.01016 -0.41787,-0.21296 -0.5732,-0.79719 -0.99107,-1.01015 -0.9344,-0.47619 -2.00327,-0.6147 -2.97325,-1.01015 -0.68587,-0.27963 -1.28136,-0.77206 -1.98215,-1.01015 -0.31341,-0.10648 -0.67059,0.0817 -0.99109,0 -1.0135,-0.25825 -1.94884,-0.80133 -2.97323,-1.01016 -0.38388,-0.0782 -3.80132,0.0831 -3.96432,0 -0.83576,-0.42591 -1.1146,-1.6666 -1.98217,-2.0203 -0.77998,-0.318 -6.75129,0.2 -7.92864,0 -1.03048,-0.17505 -1.93905,-0.85957 -2.97324,-1.01015 -8.57342,0 0.10722,0.42591 -6.93756,-1.01016 -0.64789,-0.13207 -1.32144,0 -1.98216,0 -0.99108,0 -1.98216,0 -2.97325,0 -3.628,0 -4.57647,0 -9.9108,0 -1.98216,0 -3.96432,0 -5.94648,0 -0.66072,0 -1.39119,-0.30117 -1.98216,0 -2.13076,1.08588 -3.96432,2.69374 -5.94648,4.04061 z"
         style="fill:none;stroke:#000000;stroke-width:5.64593363;stroke-linecap:butt;stroke-linejoin:miter;stroke-miterlimit:4;stroke-opacity:1;stroke-dasharray:none" />
      <path
         inkscape:connector-curvature="0"
         id="path3759"
         d="m 62.64976,836.18955 c 4.44915,2.3166 9.53515,0.0888 14.14213,1.01015 20.12123,4.02425 42.50725,-2.00413 62.62945,2.02031 3.57818,0.71563 9.92862,-1.60169 13.13199,0 3.22598,1.61299 6.45718,0.28128 10.10152,1.01015 1.47661,0.29532 2.61204,1.54411 4.04061,2.0203 4.86137,1.62046 11.17178,-1.24766 16.16244,0 0.46198,0.1155 0.58424,0.7972 1.01016,1.01016 3.07028,1.53514 7.84606,1.2039 11.11167,2.0203 3.82606,0.95651 9.13807,0 13.13199,0 10.43824,0 20.87648,0 31.31473,0 2.77459,0 7.49795,-0.86786 10.10152,0 7.31696,2.43899 -1.59261,-0.29123 3.03046,2.02031 1.56321,0.7816 27.71443,2.0203 31.31473,2.0203"
         style="fill:none;stroke:#000000;stroke-width:6;stroke-linecap:butt;stroke-linejoin:miter;stroke-miterlimit:4;stroke-opacity:1;stroke-dasharray:none" />
      <path
         inkscape:connector-curvature="0"
         id="path3767"
         d="m 206.09141,774.57024 c -0.7611,0.19027 -4.97356,0.93295 -6.06092,2.02031 -2.31794,2.31794 0.22497,5.61099 -1.01015,8.08122 -0.42592,0.85183 -1.71913,1.11679 -2.0203,2.0203 -0.50508,1.51523 0.50507,3.53553 0,5.05076 -1.77926,5.33778 -1.31483,12.47458 4.04061,15.15229 1.13588,0.56794 1.83388,2.6316 3.03045,3.03046 3.69225,1.23075 7.95664,1.01015 12.12183,1.01015 2.49806,0 5.67242,0.6022 8.08122,0 4.97822,-1.24455 3.98817,-3.83084 5.05077,-8.08122 2.20594,-8.82377 -0.54295,2.09604 3.03045,-5.05076 1.01016,-2.02031 -0.50507,-1.51523 0,-3.03046 2.38608,-7.15822 -0.76841,-8.84963 -5.05076,-13.13198 -1.89164,-1.89164 -2.64476,-3.91205 -6.06091,-5.05076 -4.85813,-1.61938 -7.91076,0.8763 -15.15229,-2.02031 z"
         style="fill:none;stroke:#000000;stroke-width:6;stroke-linecap:butt;stroke-linejoin:miter;stroke-miterlimit:4;stroke-opacity:1;stroke-dasharray:none" />
      <path
         inkscape:connector-curvature="0"
         id="path3769"
         d="m 115.17768,771.53978 c -5.87357,0.42378 -9.08127,6.05688 -14.14213,8.08122 -2.42519,0.97007 -5.13902,1.09841 -7.07107,3.03046 -0.2381,0.23809 0,0.67343 0,1.01015 -0.33672,0.33672 -0.61394,0.74601 -1.01015,1.01015 -2.88981,1.92654 -7.38946,3.66724 -9.09138,7.07107 -1.66863,3.33726 -0.0189,12.61744 3.03046,14.14214 3.82283,1.91141 23.95717,2.09192 28.28427,1.01015 3.12374,-0.78094 9.77246,-7.4231 11.11168,-10.10153 0.30117,-0.60233 -0.21296,-1.38142 0,-2.0203 1.13532,-3.40597 2.37667,-10.57713 0,-14.14214 -1.68249,-2.52373 -9.04505,-7.43806 -11.11168,-9.09137 z"
         style="fill:none;stroke:#000000;stroke-width:6;stroke-linecap:butt;stroke-linejoin:miter;stroke-miterlimit:4;stroke-opacity:1;stroke-dasharray:none" />
      <path
         inkscape:connector-curvature="0"
         id="path3775"
         d="m 199.81835,900.71079 c -0.32932,-0.32932 -4.15527,-0.96163 -8.50212,-1.40514 -4.34684,-0.44351 -9.91905,-1.5644 -12.38268,-2.49087 -2.86423,-1.07712 -8.87401,-1.86446 -16.66752,-2.18362 -9.46858,-0.38776 -14.32949,-1.14463 -21.78464,-3.39198 -5.27804,-1.59106 -13.52971,-4.08103 -18.33704,-5.53327 -4.80732,-1.45223 -9.29503,-3.30848 -9.97267,-4.125 -0.67765,-0.81651 -2.25034,-1.48457 -3.49488,-1.48457 -1.24453,0 -3.84652,-1.25006 -5.7822,-2.77791 -1.93567,-1.52786 -6.53305,-4.82348 -10.21638,-7.32361 -3.68334,-2.50013 -6.7078,-5.16075 -6.72102,-5.9125 -0.0132,-0.75174 -2.12883,-3.70643 -4.70134,-6.56599 -2.57251,-2.85955 -6.4548,-7.81518 -8.6273,-11.01252 l -3.95001,-5.81333 15.95091,0.51154 c 8.773,0.28134 27.54241,0.76213 41.7098,1.06841 14.16739,0.30629 28.4863,1.01371 31.8198,1.57205 3.33351,0.55835 10.37932,1.34013 15.65737,1.73731 5.27805,0.39717 10.2783,1.16642 11.11168,1.70944 0.84459,0.55034 15.37482,1.27829 32.82995,1.64476 17.2231,0.36159 34.724,1.15474 38.89088,1.76254 4.16688,0.6078 11.0798,1.37171 15.36206,1.69758 6.8358,0.52017 7.68225,0.79817 6.93639,2.27806 -2.44066,4.84258 -3.05151,7.53977 -3.67296,16.21772 -0.56843,7.9376 -1.11205,10.10644 -3.33878,13.32048 -4.01371,5.79335 -12.1428,11.68654 -20.05969,14.54232 -6.77238,2.44293 -8.07672,2.55686 -29.27353,2.55686 -12.20192,0 -22.45476,-0.26944 -22.78408,-0.59876 z"
         style="fill:#ff0000;stroke:#000000;stroke-width:4.06099987;stroke-miterlimit:4;stroke-opacity:1;stroke-dasharray:none" />
      <path
         inkscape:connector-curvature="0"
         id="path3761"
         d="m 238.41629,884.67687 c -4.81596,-0.51169 -8.57899,-4.92267 -13.13198,-6.06092 -3.25483,-0.81371 -5.91655,-0.43289 -9.09137,-2.02031 -2.17177,-1.08588 -3.75742,-3.27277 -6.06092,-4.04061 -3.23161,-1.0772 -6.86183,-1.41061 -10.10152,-3.03045 -1.65988,-0.82994 -3.07249,-2.53589 -5.05077,-3.03046 -0.97999,-0.245 -2.12695,0.45175 -3.03045,0 -2.03889,-1.01945 -3.88836,-2.95433 -6.06092,-4.04061 -1.0775,-0.53875 -2.96311,0.53875 -4.04061,0 -3.45234,-1.72617 -8.11261,-1.21846 -12.12183,-2.02031 -8.50516,-1.70103 -0.0312,-0.0156 -4.04061,-2.0203 -1.4738,-0.7369 -8.56893,-0.30652 -10.10153,0 -1.4625,0.2925 -3.58825,1.7278 -5.05076,2.0203 -3.99138,0.79828 -9.29027,-0.27042 -13.13198,1.01016 -0.90351,0.30117 -1.16847,1.59438 -2.02031,2.0203 -0.52012,0.26006 -1.39958,-0.75053 -4.04061,1.01015 -1.55408,1.03606 -2.48653,3.00456 -4.04061,4.04061 -1.97294,1.3153 -4.70992,1.84989 -7.07107,3.03046"
         style="fill:none;stroke:#000000;stroke-width:6;stroke-linecap:butt;stroke-linejoin:miter;stroke-miterlimit:4;stroke-opacity:1;stroke-dasharray:none" />
    </g>
  </g>
</svg>
