<?xml version="1.0" encoding="UTF-8" standalone="no"?>
<!-- Created with Inkscape (http://www.inkscape.org/) -->

<svg
   xmlns:dc="http://purl.org/dc/elements/1.1/"
   xmlns:cc="http://creativecommons.org/ns#"
   xmlns:rdf="http://www.w3.org/1999/02/22-rdf-syntax-ns#"
   xmlns:svg="http://www.w3.org/2000/svg"
   xmlns="http://www.w3.org/2000/svg"
   xmlns:sodipodi="http://sodipodi.sourceforge.net/DTD/sodipodi-0.dtd"
   xmlns:inkscape="http://www.inkscape.org/namespaces/inkscape"
   width="483.98361"
   height="470.49658"
   id="svg4141"
   version="1.1"
   inkscape:version="0.48.4 r9939"
   sodipodi:docname="CABSdock.svg">
  <defs
     id="defs4143" />
  <sodipodi:namedview
     id="base"
     pagecolor="#ffffff"
     bordercolor="#666666"
     borderopacity="1.0"
     inkscape:pageopacity="0.0"
     inkscape:pageshadow="2"
     inkscape:zoom="0.77472527"
     inkscape:cx="297.38187"
     inkscape:cy="234.46323"
     inkscape:current-layer="layer1"
     inkscape:document-units="px"
     showgrid="false"
     fit-margin-top="0"
     fit-margin-left="0"
     fit-margin-right="0"
     fit-margin-bottom="0"
     inkscape:window-width="1440"
     inkscape:window-height="875"
     inkscape:window-x="0"
     inkscape:window-y="0"
     inkscape:window-maximized="1" />
  <metadata
     id="metadata4146">
    <rdf:RDF>
      <cc:Work
         rdf:about="">
        <dc:format>image/svg+xml</dc:format>
        <dc:type
           rdf:resource="http://purl.org/dc/dcmitype/StillImage" />
        <dc:title></dc:title>
      </cc:Work>
    </rdf:RDF>
  </metadata>
  <g
     id="layer1"
     inkscape:label="Layer 1"
     inkscape:groupmode="layer"
     transform="translate(-22.618132,-3.9666538)">
    <g
       id="g3902"
       transform="matrix(5.7173,0,0,5.7173,90.845748,191.72583)">
      <g
         transform="translate(-9.7709305,-4.1140758)"
         id="g3859">
        <path
           sodipodi:type="arc"
           style="fill:#c00000;fill-opacity:1;fill-rule:nonzero;stroke:none"
           id="path3783"
           sodipodi:cx="91.281059"
           sodipodi:cy="-6.1964188"
           sodipodi:rx="36.769554"
           sodipodi:ry="36.769554"
           d="m 128.05061,-6.1964188 c 0,20.3072638 -16.46229,36.7695538 -36.769551,36.7695538 -20.307264,0 -36.769554,-16.46229 -36.769554,-36.7695538 0,-20.3072642 16.46229,-36.7695542 36.769554,-36.7695542 20.307261,0 36.769551,16.46229 36.769551,36.7695542 z"
           transform="translate(-46.28335,22.113157)" />
        <g
           id="g3820"
           transform="translate(-49.11177,-19.79899)">
          <rect
             y="19.516556"
             x="76.88179"
             height="12.085097"
             width="22.884548"
             id="rect3818"
             style="fill:#ffffff;fill-opacity:1;fill-rule:nonzero;stroke:none" />
          <g
             transform="translate(47.054742,-10.028062)"
             id="g3785">
            <path
               inkscape:connector-curvature="0"
               style="fill:#001522;fill-opacity:1;fill-rule:nonzero;stroke:none"
               d="m 56.058396,42.902074 c 0,0 -0.75726,-5.830689 1.673883,-15.946414 0,0 2.58645,-8.224792 1.901265,-11.736324 0,0 1.598767,-4.612896 0.609052,-9.3248222 0,0 -0.380657,4.1110582 -1.369358,5.8159712 0,0 -0.456788,-6.418177 -4.639977,-9.3275009 0,0 2.814848,3.9130007 2.967111,9.2271329 0,0 -1.903296,-4.3117946 -4.717126,-5.5162057 0,0 3.119374,3.3094559 3.879675,6.7206187 0,0 -5.325166,-1.505516 -9.205853,-0.401474 0,0 -2.585435,-1.002337 -5.933204,3.360311 0,0 -1.064832,1.55369 -1.787574,2.857134 0,0 -1.484063,2.507851 -2.244364,3.559703 0,0 -1.44549,2.006016 -1.863707,3.261282 0,0 -2.358057,1.905647 -4.906947,3.008352 0,0 2.966092,2.606883 4.412596,5.315469 0,0 0.456792,0.151221 0.760306,-0.151219 0,0 0,0.450984 0.418217,0.752087 0,0 0.304525,0.503178 0.989713,0.351959 0,0 0.987683,1.403807 4.906945,1.35429 l 2.205791,0 c 0,0 3.118359,-0.251585 4.487716,0.149885 0,0 -0.418219,1.504178 -1.026258,2.206749 0,0 -0.265953,2.85847 3.688839,3.761781 0,0 3.500033,2.406148 4.793259,0.701235"
               id="path9752" />
            <path
               inkscape:connector-curvature="0"
               style="fill:none;stroke:#001522;stroke-width:1.16551697;stroke-linecap:butt;stroke-linejoin:miter;stroke-miterlimit:4;stroke-opacity:1;stroke-dasharray:none"
               d="m 56.058396,42.902074 c 0,0 -0.75726,-5.830689 1.673883,-15.946414 0,0 2.58645,-8.224792 1.901265,-11.736324 0,0 1.598767,-4.612896 0.609052,-9.3248222 0,0 -0.380657,4.1110582 -1.369358,5.8159712 0,0 -0.456788,-6.418177 -4.639977,-9.3275009 0,0 2.814848,3.9130007 2.967111,9.2271329 0,0 -1.903296,-4.3117946 -4.717126,-5.5162057 0,0 3.119374,3.3094559 3.879675,6.7206187 0,0 -5.325166,-1.505516 -9.205853,-0.401474 0,0 -2.585435,-1.002337 -5.933204,3.360311 0,0 -1.064832,1.55369 -1.787574,2.857134 0,0 -1.484063,2.507851 -2.244364,3.559703 0,0 -1.44549,2.006016 -1.863707,3.261282 0,0 -2.358057,1.905647 -4.906947,3.008352 0,0 2.966092,2.606883 4.412596,5.315469 0,0 0.456792,0.151221 0.760306,-0.151219 0,0 0,0.450984 0.418217,0.752087 0,0 0.304525,0.503178 0.989713,0.351959 0,0 0.987683,1.403807 4.906945,1.35429 l 2.205791,0 c 0,0 3.118359,-0.251585 4.487716,0.149885 0,0 -0.418219,1.504178 -1.026258,2.206749 0,0 -0.265953,2.85847 3.688839,3.761781 0,0 3.500033,2.406148 4.793259,0.701235 z"
               id="path9756" />
            <path
               inkscape:connector-curvature="0"
               style="fill:#ffffff;fill-opacity:1;fill-rule:nonzero;stroke:none"
               d="m 42.440955,14.067258 c 0,0 -0.03857,4.313128 -3.422881,11.182292 0,0 -1.751033,3.611898 -2.054546,5.215104 0,0 0.456792,-0.450986 0.609056,-0.500502 0,0 0.685184,-2.257601 2.092101,-5.215101 0,0 3.11836,-6.419517 3.0808,-10.88119 0,0 -0.190838,-0.15256 -0.30453,0.199397"
               id="path9760" />
            <path
               inkscape:connector-curvature="0"
               style="fill:#ffffff;fill-opacity:1;fill-rule:nonzero;stroke:none"
               d="m 35.213411,25.299729 c 0,0 0.951141,-0.550016 1.446505,-1.152219 0,0 -0.609054,0.149882 -1.179537,0.350617 0,0 -0.304527,0.602205 -0.266968,0.801602"
               id="path9764" />
            <path
               inkscape:connector-curvature="0"
               style="fill:#ffffff;fill-opacity:1;fill-rule:nonzero;stroke:none"
               d="m 47.232895,12.16188 c 0,0 1.141974,1.102702 -1.634296,5.213759 0,0 2.77627,-2.60554 2.205791,-5.465351 0,0 -0.494349,0.05213 -0.571495,0.251592"
               id="path9768" />
            <path
               inkscape:connector-curvature="0"
               style="fill:#fcb131;fill-opacity:1;fill-rule:nonzero;stroke:none"
               d="m 3.5661406,30.766433 c 0,0 3.7274123,8.726629 9.8900244,11.734986 0,0 0.845572,1.474735 1.750016,3.508852 0,0 1.902278,4.813633 6.579821,8.025398 0,0 5.743381,4.512532 11.06956,3.808619 0,0 2.510316,0 4.298906,-2.105046 0,0 0.646615,-0.750751 1.787573,-2.106383 0,0 4.030925,-0.450985 10.041274,1.102709 0,0 3.652298,1.153556 5.629691,1.304775 0,0 3.385326,0.903313 3.955811,-2.50651 0,0 1.218104,-5.117418 -2.092106,-11.734991 0,0 -2.243349,-6.067557 -7.949172,-4.211424 0,0 -1.29424,0.25025 -3.348782,1.002337 0,0 -3.460445,1.504175 -5.818499,0 0,0 -0.836433,-0.351953 -1.750015,-2.107719 0,0 -0.761316,-1.553693 -1.369355,-1.904311 0,0 -0.609056,-0.80294 -2.585438,-0.551353 0,0 -1.484062,0.200735 -2.169247,-1.154898 0,0 -0.570479,-0.952823 -0.152263,-3.360307 0,0 -0.495366,-0.699897 -0.912569,-0.851116 0,0 -3.423899,-0.301107 -5.74338,0.501836 0,0 -1.751029,0.551352 -2.854434,3.158235 0,0 -5.209446,-0.299766 -9.81288,-3.559705 0,0 -2.0910881,-5.014368 -3.9172341,-7.472709 0,0 -3.6898526,-6.969526 -5.8966589,-4.160572 0,0 -1.67388422,2.906649 -0.2283957,8.824323 0,0 0.8374498,3.111398 1.5977523,4.814974"
               id="path9772" />
            <path
               inkscape:connector-curvature="0"
               style="fill:none;stroke:#001522;stroke-width:1.16551697;stroke-linecap:butt;stroke-linejoin:miter;stroke-miterlimit:4;stroke-opacity:1;stroke-dasharray:none"
               d="m 3.5661406,30.766433 c 0,0 3.7274123,8.726629 9.8900244,11.734986 0,0 0.845572,1.474735 1.750016,3.508852 0,0 1.902278,4.813633 6.579821,8.025398 0,0 5.743381,4.512532 11.06956,3.808619 0,0 2.510316,0 4.298906,-2.105046 0,0 0.646615,-0.750751 1.787573,-2.106383 0,0 4.030925,-0.450985 10.041274,1.102709 0,0 3.652298,1.153556 5.629691,1.304775 0,0 3.385326,0.903313 3.955811,-2.50651 0,0 1.218104,-5.117418 -2.092106,-11.734991 0,0 -2.243349,-6.067557 -7.949172,-4.211424 0,0 -1.29424,0.25025 -3.348782,1.002337 0,0 -3.460445,1.504175 -5.818499,0 0,0 -0.836433,-0.351953 -1.750015,-2.107719 0,0 -0.761316,-1.553693 -1.369355,-1.904311 0,0 -0.609056,-0.80294 -2.585438,-0.551353 0,0 -1.484062,0.200735 -2.169247,-1.154898 0,0 -0.570479,-0.952823 -0.152263,-3.360307 0,0 -0.495366,-0.699897 -0.912569,-0.851116 0,0 -3.423899,-0.301107 -5.74338,0.501836 0,0 -1.751029,0.551352 -2.854434,3.158235 0,0 -5.209446,-0.299766 -9.81288,-3.559705 0,0 -2.0910881,-5.014368 -3.9172341,-7.472709 0,0 -3.6898526,-6.969526 -5.8966589,-4.160572 0,0 -1.67388422,2.906649 -0.2283957,8.824323 0,0 0.8374498,3.111398 1.5977523,4.814974 z"
               id="path9776" />
            <path
               inkscape:connector-curvature="0"
               style="fill:#ffffff;fill-opacity:1;fill-rule:nonzero;stroke:none"
               d="m 36.544704,35.328733 c 0,0 -0.951141,0.402807 -1.331798,-0.09903 0,0 -0.455776,-0.301103 -0.227382,-1.354296 l 0.57048,0 c 0,0 -0.114704,0.701235 0.190839,0.852459 0,0 0.531908,0.151219 1.064829,-0.09903 0,0 -0.07614,0.551352 -0.266968,0.699899"
               id="path9780" />
            <path
               inkscape:connector-curvature="0"
               style="fill:#ffffff;fill-opacity:1;fill-rule:nonzero;stroke:none"
               d="m 35.594069,34.677813 c 0,0 -0.912564,-3.310795 4.184205,-6.167923 0,0 -4.754683,1.153557 -4.869388,6.067556 0,0 0.494347,0 0.685183,0.100315"
               id="path9784" />
            <path
               inkscape:connector-curvature="0"
               style="fill:#001522;fill-opacity:1;fill-rule:nonzero;stroke:none"
               d="m 38.06734,33.824564 c 0,0 -1.864721,1.355634 -2.320497,0.903311 0,0 -0.609055,-0.149882 0.265953,-2.457 0,0 2.054544,1.053189 2.054544,1.553689"
               id="path9788" />
            <path
               inkscape:connector-curvature="0"
               style="fill:none;stroke:#001522;stroke-width:1.16551697;stroke-linecap:butt;stroke-linejoin:miter;stroke-miterlimit:4;stroke-opacity:1;stroke-dasharray:none"
               d="m 38.06734,33.824564 c 0,0 -1.864721,1.355634 -2.320497,0.903311 0,0 -0.609055,-0.149882 0.265953,-2.457 0,0 2.054544,1.053189 2.054544,1.553689 z"
               id="path9792" />
            <path
               inkscape:connector-curvature="0"
               style="fill:#ffffff;fill-opacity:1;fill-rule:nonzero;stroke:none"
               d="m 48.298537,36.333758 c 0,0 0.647626,0 1.445486,0.400133 0,0 -1.293222,0.149883 -1.787573,0.200735 0,0 0.113689,-0.702573 0.342087,-0.600868"
               id="path9796" />
            <path
               inkscape:connector-curvature="0"
               style="fill:#ffffff;fill-opacity:1;fill-rule:nonzero;stroke:none"
               d="m 35.746739,34.727597 c 0,0 1.027274,0.702573 5.70481,-3.207749 0,0 5.250047,-4.464354 8.102449,-4.163251 0,0 0.380661,4.612898 -0.418217,9.377016 0,0 -0.304526,0 -0.45679,-0.04946 0,0 0.798876,-4.112396 0.495363,-8.976882 0,0 -2.814843,0.301107 -7.494411,4.211429 0,0 -3.918248,3.51153 -5.591118,3.460674 0,0 -0.113691,-0.400133 -0.342086,-0.651721"
               id="path9800" />
            <path
               inkscape:connector-curvature="0"
               style="fill:#ffffff;fill-opacity:1;fill-rule:nonzero;stroke:none"
               d="m 47.614568,27.657444 c 0,0 4.412599,-1.354295 6.959462,-0.651723 0,0 -3.215808,0.0562 -6.199161,0.90331 0,0 -0.912565,-0.05084 -0.760301,-0.251587"
               id="path9804" />
            <path
               inkscape:connector-curvature="0"
               style="fill:#ffffff;fill-opacity:1;fill-rule:nonzero;stroke:none"
               d="m 56.325059,24.698594 c 0,0 -0.380658,-2.907985 -3.385327,-2.70725 0,0 -4.071529,0.149882 -7.874055,4.311795 0,0 2.890976,-4.51253 7.835481,-4.914 0,0 3.499018,-0.250249 3.423901,3.309455"
               id="path9808" />
            <path
               inkscape:connector-curvature="0"
               style="fill:#ffffff;fill-opacity:1;fill-rule:nonzero;stroke:none"
               d="m 55.221759,20.135084 c 0,0 -1.826148,-0.701235 -4.070515,0.551352 0,0 1.97841,-2.35797 4.070515,-0.551352"
               id="path9812" />
            <path
               inkscape:connector-curvature="0"
               style="fill:#001522;fill-opacity:1;fill-rule:nonzero;stroke:none"
               d="m 33.235713,31.519182 c 0,0 -0.836438,1.152221 -1.863707,0 0,0 -0.03756,-1.203074 0.190836,-1.655397 0,0 0.760301,0.25025 1.672871,1.655397"
               id="path9816" />
            <path
               inkscape:connector-curvature="0"
               style="fill:none;stroke:#001522;stroke-width:1.16551697;stroke-linecap:butt;stroke-linejoin:miter;stroke-miterlimit:4;stroke-opacity:1;stroke-dasharray:none"
               d="m 33.235713,31.519182 c 0,0 -0.836438,1.152221 -1.863707,0 0,0 -0.03756,-1.203074 0.190836,-1.655397 0,0 0.760301,0.25025 1.672871,1.655397 z"
               id="path9820" />
            <path
               inkscape:connector-curvature="0"
               style="fill:#001522;fill-opacity:1;fill-rule:nonzero;stroke:none"
               d="m 40.691347,36.182129 c 0,0 -0.418217,2.557368 -2.205791,1.553694 0,0 -0.837451,-1.203077 -1.255667,-2.055531 0,0 -0.380658,-0.550015 0.189821,-0.500499 0,0 0.951142,0.650382 3.271637,1.002336"
               id="path9824" />
            <path
               inkscape:connector-curvature="0"
               style="fill:none;stroke:#001522;stroke-width:1.16551697;stroke-linecap:butt;stroke-linejoin:miter;stroke-miterlimit:4;stroke-opacity:1;stroke-dasharray:none"
               d="m 40.691347,36.182129 c 0,0 -0.418217,2.557368 -2.205791,1.553694 0,0 -0.837451,-1.203077 -1.255667,-2.055531 0,0 -0.380658,-0.550015 0.189821,-0.500499 0,0 0.951142,0.650382 3.271637,1.002336 z"
               id="path9828" />
            <path
               inkscape:connector-curvature="0"
               style="fill:#001522;fill-opacity:1;fill-rule:nonzero;stroke:none"
               d="m 21.938871,32.722791 c 0,0 3.118359,0.600868 5.66725,-0.651718 0,0 -1.977396,0.248908 -5.401295,-0.152562 0,0 -0.456791,0.552695 -0.265955,0.80428"
               id="path9832" />
            <path
               inkscape:connector-curvature="0"
               style="fill:#001522;fill-opacity:1;fill-rule:nonzero;stroke:none"
               d="m 11.630426,28.710761 c 0,0 2.015968,4.362648 3.310211,8.123087 0,0 -0.190837,-2.807617 -2.359074,-7.622587 0,0 -0.875005,-0.801603 -0.951137,-0.5005"
               id="path9836" />
            <path
               inkscape:connector-curvature="0"
               style="fill:#001522;fill-opacity:1;fill-rule:nonzero;stroke:none"
               d="m 14.102677,43.002582 c 0,0 -7.2264286,-16.900578 -11.4867625,-20.511134 0,0 4.6024194,6.218781 10.3833585,19.658676 0,0 0.951141,1.303442 1.103404,0.852458"
               id="path9840" />
            <path
               inkscape:connector-curvature="0"
               style="fill:none;stroke:#001522;stroke-width:1.16551697;stroke-linecap:butt;stroke-linejoin:miter;stroke-miterlimit:4;stroke-opacity:1;stroke-dasharray:none"
               d="m 38.827641,53.733357 c 0,0 2.548894,-3.510193 3.993365,-5.465357 0,0 3.689853,-5.265954 6.428569,-6.167923"
               id="path9844" />
            <path
               inkscape:connector-curvature="0"
               style="fill:#a44138;fill-opacity:1;fill-rule:nonzero;stroke:none"
               d="m 46.434932,44.105692 c 0,0 2.015969,-2.458338 3.879675,-2.006016 0,0 1.863705,0.149882 2.548893,2.006016 0,0 -3.194491,-0.903307 -6.428568,0"
               id="path9848" />
            <path
               inkscape:connector-curvature="0"
               style="fill:none;stroke:#001522;stroke-width:1.16551697;stroke-linecap:butt;stroke-linejoin:miter;stroke-miterlimit:4;stroke-opacity:1;stroke-dasharray:none"
               d="m 46.434932,44.105692 c 0,0 2.015969,-2.458338 3.879675,-2.006016 0,0 1.863705,0.149882 2.548893,2.006016 0,0 -3.194491,-0.903307 -6.428568,0 z"
               id="path9852" />
            <path
               inkscape:connector-curvature="0"
               style="fill:#001522;fill-opacity:1;fill-rule:nonzero;stroke:none"
               d="m 52.901158,43.35414 c 0,0 0.685185,1.002338 0.989716,2.355294 0,0 -0.876024,-0.952823 -1.521622,-1.504175 0,0 0.341072,-1.051852 0.531906,-0.851119"
               id="path9856" />
            <path
               inkscape:connector-curvature="0"
               style="fill:#001522;fill-opacity:1;fill-rule:nonzero;stroke:none"
               d="m 47.842558,40.745653 c 0,0 -2.320499,0.149883 -4.450158,3.559705 0,0 1.369358,-4.713265 4.450158,-3.559705"
               id="path9860" />
            <path
               inkscape:connector-curvature="0"
               style="fill:none;stroke:#001522;stroke-width:1.16551697;stroke-linecap:butt;stroke-linejoin:miter;stroke-miterlimit:4;stroke-opacity:1;stroke-dasharray:none"
               d="m 47.842558,40.745653 c 0,0 -2.320499,0.149883 -4.450158,3.559705 0,0 1.369358,-4.713265 4.450158,-3.559705 z"
               id="path9864" />
            <path
               inkscape:connector-curvature="0"
               style="fill:none;stroke:#001522;stroke-width:1.16551697;stroke-linecap:butt;stroke-linejoin:miter;stroke-miterlimit:4;stroke-opacity:1;stroke-dasharray:none"
               d="m 33.577698,37.686307 c 0,0 -0.07512,1.05319 0.07714,1.955158 0,0 0.07512,1.25393 0.873992,1.153563 0,0 0.912565,-0.349282 0.114704,-1.604547 0,0 -0.494348,-0.701235 -1.065841,-1.504174 z"
               id="path9868" />
            <path
               inkscape:connector-curvature="0"
               style="fill:none;stroke:#001522;stroke-width:1.16551697;stroke-linecap:butt;stroke-linejoin:miter;stroke-miterlimit:4;stroke-opacity:1;stroke-dasharray:none"
               d="m 30.801119,34.778449 c 0,0 -0.531907,0.450986 -1.140963,0.351955 0,0 -0.988696,-0.05085 -0.912565,-0.653057 0,0 -0.07613,-0.401469 0.836433,-0.05084 0,0 0.685188,0.301102 1.217095,0.351954 z"
               id="path9872" />
          </g>
        </g>
        <text
           xml:space="preserve"
           style="font-size:40px;font-style:italic;font-variant:normal;font-weight:bold;font-stretch:normal;line-height:125%;letter-spacing:0px;word-spacing:0px;fill:#ffffff;fill-opacity:1;stroke:none;font-family:txbtt;-inkscape-font-specification:txbtt Bold Italic"
           x="40.36937"
           y="38.544155"
           id="text3855"
           sodipodi:linespacing="125%"><tspan
             sodipodi:role="line"
             id="tspan3857"
             x="40.36937"
             y="38.544155"
             style="font-size:16px;font-style:italic;font-variant:normal;font-weight:bold;font-stretch:normal;fill:#ffffff;font-family:txbtt;-inkscape-font-specification:txbtt Bold Italic">CABS</tspan></text>
      </g>
      <text
         sodipodi:linespacing="125%"
         id="text3898"
         y="42.4011"
         x="34.712513"
         style="font-size:40px;font-style:normal;font-variant:normal;font-weight:normal;font-stretch:normal;line-height:125%;letter-spacing:0px;word-spacing:0px;fill:#000000;fill-opacity:1;stroke:none;font-family:TeX Gyre Pagella Math;-inkscape-font-specification:TeX Gyre Pagella Math"
         xml:space="preserve"><tspan
           style="font-size:9px;font-style:normal;font-variant:normal;font-weight:normal;font-stretch:normal;fill:#ffffff;font-family:TeX Gyre Pagella Math;-inkscape-font-specification:TeX Gyre Pagella Math"
           y="42.4011"
           x="34.712513"
           id="tspan3900"
           sodipodi:role="line">dock</tspan></text>
    </g>
  </g>
</svg>
