<?xml version="1.0" encoding="UTF-8"?>
<!DOCTYPE svg PUBLIC "-//W3C//DTD SVG 1.1//EN" "http://www.w3.org/Graphics/SVG/1.1/DTD/svg11.dtd">
<!-- Creator: CorelDRAW X5 -->
<svg xmlns="http://www.w3.org/2000/svg" xml:space="preserve" width="86.6121mm" height="80.1558mm" style="shape-rendering:geometricPrecision; text-rendering:geometricPrecision; image-rendering:optimizeQuality; fill-rule:evenodd; clip-rule:evenodd"
viewBox="0 0 86.5023 80.0542"
 xmlns:xlink="http://www.w3.org/1999/xlink">
 <defs>
  <style type="text/css">
   <![CDATA[
    .str1 {stroke:#5BC0DE;stroke-width:3.99493}
    .str0 {stroke:#F0AD4E;stroke-width:3.99493}
    .fil0 {fill:none}
    .fil1 {fill:#5BC0DE}
   ]]>
  </style>
 </defs>
 <g id="Layer_x0020_1">
  <metadata id="CorelCorpID_0Corel-Layer"/>
  <path class="fil0 str0" d="M45.3899 1.99747c6.1436,0 10.0295,0.782407 15.7955,11.0846 4.54144,7.37594 20.0367,11.6993 24.6633,13.3015"/>
  <path class="fil1 str1" d="M43.3585 8.92547c9.81285,0 9.16018,11.2926 17.6448,14.5646 13.0809,5.0448 17.8902,11.1577 17.8902,20.9704 0,9.81285 -14.4947,6.20722 -20.9251,12.6377 -6.43044,6.43034 -5.45418,15.0095 -15.267,15.0095 -9.81285,0 -8.76618,-8.03111 -15.1966,-14.4616 -6.43044,-6.43044 -19.6812,-3.37272 -19.6812,-13.1856 0,-9.81265 14.4945,-8.17972 20.9249,-14.6102 6.43014,-6.43034 4.79721,-20.9248 14.6101,-20.9248z"/>
  <path class="fil0 str0" d="M24.8009 24.7263c-12.2685,6.68452 -26.0266,3.49367 -22.135,-5.08575 2.54167,-5.60309 18.6923,1.20307 -1.05966,16.8799"/>
  <path class="fil0 str0" d="M83.3868 55.6651c-3.94999,0 -23.2581,4.05296 -23.3212,7.8779 0.517443,3.52293 11.508,0.982753 23.1825,-2.47416"/>
  <path class="fil0 str0" d="M5.56923 55.8353c4.9639,0 16.7851,5.6706 19.4784,10.3244 10.4897,18.1247 -0.482787,12.1388 -5.44719,4.45375"/>
 </g>
</svg>
