<?xml version="1.0" encoding="UTF-8" standalone="no"?>
<svg
   xmlns:dc="http://purl.org/dc/elements/1.1/"
   xmlns:cc="http://creativecommons.org/ns#"
   xmlns:rdf="http://www.w3.org/1999/02/22-rdf-syntax-ns#"
   xmlns:svg="http://www.w3.org/2000/svg"
   xmlns="http://www.w3.org/2000/svg"
   viewBox="0 0 299.99999 427.98511"
   version="1.1"
   id="svg21997"
   height="427.98511"
   width="300">
  <defs
     id="defs21999" />
  <metadata
     id="metadata22002">
    <rdf:RDF>
      <cc:Work
         rdf:about="">
        <dc:format>image/svg+xml</dc:format>
        <dc:type
           rdf:resource="http://purl.org/dc/dcmitype/StillImage" />
        <dc:title></dc:title>
      </cc:Work>
    </rdf:RDF>
  </metadata>
  <g
     transform="translate(328.80997,-4.1807668)"
     id="layer1">
    <g
       id="g21870"
       transform="matrix(2.2743528,0,0,2.2743528,-131.10668,-1768.8945)">
      <path
         id="path9728"
         style="fill:#fcb131;fill-opacity:1;fill-rule:nonzero;stroke:none"
         d="m 2.471255,908.58532 c 0,0 -2.71624995,21.17125 -13.39625,37.00375 0,0 -0.5625,0.8425 -1.03,1.59125 0,0 -1.49875,1.78125 0.18625,4.31 0,0 6.18375,9.27375 20.985,14.895 0,0 3.7475,1.78 9.275,-0.0925 0,0 5.34,-1.8275 7.58875,-2.24875 0,0 1.17,-0.1875 3.7,-0.37625 0,0 3.09,0.28125 4.495,-0.70125 0,0 1.26625,-0.515 2.5775,-3.13875 0,0 0.7025,-2.1075 3.27875,-3.185 0,0 5.34,-2.3425 4.02875,-4.59 0,0 -0.18875,-2.155 -8.7125,-2.155 0,0 -10.21125,0.1875 -13.58375,0.0937 0,0 -11.99,-0.5625 -18.17375,-4.87125 0,0 -2.90499995,-1.87375 -2.80999995,-7.12 0,0 -0.095,-2.15375 0.56124995,-5.34 0,0 3.55875,-14.05125 4.21625,-20.61 0,0 2.81,-7.68125 -3.18625,-3.465" />
      <path
         id="path9732"
         style="fill:none;stroke:#001522;stroke-width:1.25;stroke-linecap:butt;stroke-linejoin:miter;stroke-miterlimit:4;stroke-dasharray:none;stroke-opacity:1"
         d="m 2.471255,908.58532 c 0,0 -2.71624995,21.17125 -13.39625,37.00375 0,0 -0.5625,0.8425 -1.03,1.59125 0,0 -1.49875,1.78125 0.18625,4.31 0,0 6.18375,9.27375 20.985,14.895 0,0 3.7475,1.78 9.275,-0.0925 0,0 5.34,-1.8275 7.58875,-2.24875 0,0 1.17,-0.1875 3.7,-0.37625 0,0 3.09,0.28125 4.495,-0.70125 0,0 1.26625,-0.515 2.5775,-3.13875 0,0 0.7025,-2.1075 3.27875,-3.185 0,0 5.34,-2.3425 4.02875,-4.59 0,0 -0.18875,-2.155 -8.7125,-2.155 0,0 -10.21125,0.1875 -13.58375,0.0937 0,0 -11.99,-0.5625 -18.17375,-4.87125 0,0 -2.90499995,-1.87375 -2.80999995,-7.12 0,0 -0.095,-2.15375 0.56124995,-5.34 0,0 3.55875,-14.05125 4.21625,-20.61 0,0 2.81,-7.68125 -3.18625,-3.465 z" />
      <path
         id="path9736"
         style="fill:#fcb131;fill-opacity:1;fill-rule:nonzero;stroke:none"
         d="m -19.82487,912.05095 c 0,0 -3.465,13.30375 -16.0175,28.6675 0,0 -1.96875,1.77875 -5.43375,1.8725 0,0 -8.85375,0.56125 -17.56625,0 0,0 -12.41375,-1.03125 -21.78125,-0.93625 0,0 -6.36875,-0.28125 -5.62,2.34125 0,0 0.1875,1.12375 2.06125,2.52875 0,0 1.405,0.84375 1.12375,2.06125 0,0 -0.84375,2.43625 1.03,3.3725 0,0 0.89125,0.84375 3.4675,1.12375 0,0 4.63625,0.51625 7.68125,4.21625 0,0 4.87125,6.83875 15.0825,4.12125 0,0 14.39375,-3.88375 25.10625,-10.58625 0,0 2.9975,-1.21625 3.7475,-7.21125 0,0 0.44375,-2.46625 1.405,-5.715 0,0 3.7475,-13.585 11.1475,-22.10875 0,0 1.68625,-5.06 -1.78,-5.06 0,0 -3.185,0.75125 -3.65375,1.3125" />
      <path
         id="path9740"
         style="fill:none;stroke:#001522;stroke-width:1.25;stroke-linecap:butt;stroke-linejoin:miter;stroke-miterlimit:4;stroke-dasharray:none;stroke-opacity:1"
         d="m -19.82487,912.05095 c 0,0 -3.465,13.30375 -16.0175,28.6675 0,0 -1.96875,1.77875 -5.43375,1.8725 0,0 -8.85375,0.56125 -17.56625,0 0,0 -12.41375,-1.03125 -21.78125,-0.93625 0,0 -6.36875,-0.28125 -5.62,2.34125 0,0 0.1875,1.12375 2.06125,2.52875 0,0 1.405,0.84375 1.12375,2.06125 0,0 -0.84375,2.43625 1.03,3.3725 0,0 0.89125,0.84375 3.4675,1.12375 0,0 4.63625,0.51625 7.68125,4.21625 0,0 4.87125,6.83875 15.0825,4.12125 0,0 14.39375,-3.88375 25.10625,-10.58625 0,0 2.9975,-1.21625 3.7475,-7.21125 0,0 0.44375,-2.46625 1.405,-5.715 0,0 3.7475,-13.585 11.1475,-22.10875 0,0 1.68625,-5.06 -1.78,-5.06 0,0 -3.185,0.75125 -3.65375,1.3125 z" />
      <path
         id="path9744"
         style="fill:#001522;fill-opacity:1;fill-rule:nonzero;stroke:none"
         d="m 9.21688,906.1952 c 0,0 1.31125,-0.28125 1.96625,-0.18625 0,0 -0.37375,-0.79625 -2.71625,-1.35875 0,0 1.03125,-1.2175 1.125,-6.27625 0,0 6.9325,-5.29375 1.2175,-18.5025 0,0 -0.28125,2.95125 -0.8425,4.825 0,0 0.795,-5.94875 -4.16875,-8.4775 0,0 -3.10375,-4.5725 -6.69874995,-6.41875 0,0 1.82625,3.935 1.54625,10.30625 0,0 -1.3125,-0.61 -2.95125005,-0.75 0,0 -3.23375,-2.95 -5.1525,-5.06 0,0 -0.46875,-3.2775 2.71625,-12.92625 0,0 5.05875005,-12.83375 3.56125,-18.17375 0,0 2.06000005,0.93625 2.90375,2.90375 0,0 0.74875,-6.5575 -7.0275,-6.74625 0,0 1.49875,-1.405 3.28,-1.59125 0,0 -2.24875,-0.9375 -7.495,1.49875 0,0 0.65625,-4.685 11.80375,-11.71 0,0 -3.3725,-4.685 -7.58875,-3.935 0,0 -7.02625,5.9025 -7.9625,7.4 0,0 -2.81,3.46625 -4.4025,8.0575 0,0 -1.5,-0.14125 -2.2025,-0.0462 0,0 0.28125,-4.21625 -4.73125,-5.29375 0,0 1.59375,1.21875 1.875,1.96625 0,0 -4.21625,-1.685 -9.55625,1.96875 0,0 2.62375,-0.2825 3.46625,-0.0937 0,0 -3.55875,1.405 -9.3675,6.93125 0,0 -4.87125,3.935 -10.7725,6.55875 0,0 -10.77375,4.49625 -12.6475,10.02375 0,0 2.7175,-2.7175 3.84125,-3.0925 0,0 -3.56125,4.59125 -0.9375,13.30375 0,0 0.9375,-0.9375 0.75,-2.62375 0,0 4.49625,5.5275 11.89625,1.03125 0,0 -3.27875,-0.0937 -4.4025,-0.28125 0,0 4.8725,-1.9675 9.3675,-6.5575 0,0 0.095,5.1525 7.12,14.7075 0,0 3.65375,4.12125 5.62125,9.27375 0,0 5.995,18.08125 10.30375,21.35875 0,0 -1.405,1.87375 -5.99375,2.24875 0,0 2.575,0.84375 4.075,0.75 0,0 -0.4225,0.655 -2.4825,2.01375 0,0 -1.0775,0.60875 0.23375,0.75125 0,0 1.92125,0.2325 4.825,-1.64125 0,0 -2.53,3.51375 -1.54625,3.7475 0,0 1.17,0.93625 3.56,-2.7175 0,0 -0.37625,1.3125 0.56125,3.2325 0,0 0.9375,1.31125 1.125,-0.1875 0,0 0.09375,-0.9825 0.515,-2.3875 0,0 0.56125,0.9825 2.52875,2.01375 0,0 -0.93625,-1.54625 -1.03,-3.98125 0,0 3.56,-3.935 12.36625005,-5.2475 0,0 -0.1875,1.96875 -1.73375005,4.73125 0,0 1.73375005,-0.23375 3.13875,-2.4825 0,0 0.09375,1.17125 -0.84375,3.045 0,0 -0.65499995,0.89 -0.0925,1.03125 0,0 2.10625,0.37375 3.55875,-3.515 0,0 0.06875,0.96 0,2.48375 0,0 -0.09375,1.545 1.265,0.51625 0,0 1.35875,-0.84375 1.73375,-4.30875 0,0 0,0.56125 1.405,1.4975 0,0 1.68625,0.9825 1.265,-0.65625 0,0 -0.1875,-1.12375 -1.17125,-2.95125" />
      <path
         id="path9748"
         style="fill:none;stroke:#001522;stroke-width:1.25;stroke-linecap:butt;stroke-linejoin:miter;stroke-miterlimit:4;stroke-dasharray:none;stroke-opacity:1"
         d="m 9.21688,906.1952 c 0,0 1.31125,-0.28125 1.96625,-0.18625 0,0 -0.37375,-0.79625 -2.71625,-1.35875 0,0 1.03125,-1.2175 1.125,-6.27625 0,0 6.9325,-5.29375 1.2175,-18.5025 0,0 -0.28125,2.95125 -0.8425,4.825 0,0 0.795,-5.94875 -4.16875,-8.4775 0,0 -3.10375,-4.5725 -6.69874995,-6.41875 0,0 1.82625,3.935 1.54625,10.30625 0,0 -1.3125,-0.61 -2.95125005,-0.75 0,0 -3.23375,-2.95 -5.1525,-5.06 0,0 -0.46875,-3.2775 2.71625,-12.92625 0,0 5.05875005,-12.83375 3.56125,-18.17375 0,0 2.06000005,0.93625 2.90375,2.90375 0,0 0.74875,-6.5575 -7.0275,-6.74625 0,0 1.49875,-1.405 3.28,-1.59125 0,0 -2.24875,-0.9375 -7.495,1.49875 0,0 0.65625,-4.685 11.80375,-11.71 0,0 -3.3725,-4.685 -7.58875,-3.935 0,0 -7.02625,5.9025 -7.9625,7.4 0,0 -2.81,3.46625 -4.4025,8.0575 0,0 -1.5,-0.14125 -2.2025,-0.0462 0,0 0.28125,-4.21625 -4.73125,-5.29375 0,0 1.59375,1.21875 1.875,1.96625 0,0 -4.21625,-1.685 -9.55625,1.96875 0,0 2.62375,-0.2825 3.46625,-0.0937 0,0 -3.55875,1.405 -9.3675,6.93125 0,0 -4.87125,3.935 -10.7725,6.55875 0,0 -10.77375,4.49625 -12.6475,10.02375 0,0 2.7175,-2.7175 3.84125,-3.0925 0,0 -3.56125,4.59125 -0.9375,13.30375 0,0 0.9375,-0.9375 0.75,-2.62375 0,0 4.49625,5.5275 11.89625,1.03125 0,0 -3.27875,-0.0937 -4.4025,-0.28125 0,0 4.8725,-1.9675 9.3675,-6.5575 0,0 0.095,5.1525 7.12,14.7075 0,0 3.65375,4.12125 5.62125,9.27375 0,0 5.995,18.08125 10.30375,21.35875 0,0 -1.405,1.87375 -5.99375,2.24875 0,0 2.575,0.84375 4.075,0.75 0,0 -0.4225,0.655 -2.4825,2.01375 0,0 -1.0775,0.60875 0.23375,0.75125 0,0 1.92125,0.2325 4.825,-1.64125 0,0 -2.53,3.51375 -1.54625,3.7475 0,0 1.17,0.93625 3.56,-2.7175 0,0 -0.37625,1.3125 0.56125,3.2325 0,0 0.9375,1.31125 1.125,-0.1875 0,0 0.09375,-0.9825 0.515,-2.3875 0,0 0.56125,0.9825 2.52875,2.01375 0,0 -0.93625,-1.54625 -1.03,-3.98125 0,0 3.56,-3.935 12.36625005,-5.2475 0,0 -0.1875,1.96875 -1.73375005,4.73125 0,0 1.73375005,-0.23375 3.13875,-2.4825 0,0 0.09375,1.17125 -0.84375,3.045 0,0 -0.65499995,0.89 -0.0925,1.03125 0,0 2.10625,0.37375 3.55875,-3.515 0,0 0.06875,0.96 0,2.48375 0,0 -0.09375,1.545 1.265,0.51625 0,0 1.35875,-0.84375 1.73375,-4.30875 0,0 0,0.56125 1.405,1.4975 0,0 1.68625,0.9825 1.265,-0.65625 0,0 -0.1875,-1.12375 -1.17125,-2.95125 z" />
      <path
         id="path9752"
         style="fill:#001522;fill-opacity:1;fill-rule:nonzero;stroke:none"
         d="m 16.430005,817.99582 c 0,0 -0.9325,-5.44625 2.06125,-14.895 0,0 3.185,-7.6825 2.34125,-10.9625 0,0 1.96875,-4.30875 0.75,-8.71 0,0 -0.46875,3.84 -1.68625,5.4325 0,0 -0.5625,-5.995 -5.71375,-8.7125 0,0 3.46625,3.655 3.65375,8.61875 0,0 -2.34375,-4.0275 -5.80875,-5.1525 0,0 3.84125,3.09125 4.7775,6.2775 0,0 -6.5575,-1.40625 -11.33625,-0.375 0,0 -3.18375,-0.93625 -7.30625,3.13875 0,0 -1.31125,1.45125 -2.20125,2.66875 0,0 -1.8275,2.3425 -2.76375,3.325 0,0 -1.78,1.87375 -2.295,3.04625 0,0 -2.90375,1.78 -6.0425,2.81 0,0 3.6525,2.435 5.43375,4.965 0,0 0.5625,0.14125 0.93625,-0.14125 0,0 0,0.42125 0.515,0.7025 0,0 0.375,0.47 1.21875,0.32875 0,0 1.21625,1.31125 6.04250005,1.265 l 2.71624995,0 c 0,0 3.84,-0.235 5.52625,0.14 0,0 -0.515,1.405 -1.26375,2.06125 0,0 -0.3275,2.67 4.5425,3.51375 0,0 4.31,2.2475 5.9025,0.655" />
      <path
         id="path9756"
         style="fill:none;stroke:#001522;stroke-width:1.25;stroke-linecap:butt;stroke-linejoin:miter;stroke-miterlimit:4;stroke-dasharray:none;stroke-opacity:1"
         d="m 16.430005,817.99582 c 0,0 -0.9325,-5.44625 2.06125,-14.895 0,0 3.185,-7.6825 2.34125,-10.9625 0,0 1.96875,-4.30875 0.75,-8.71 0,0 -0.46875,3.84 -1.68625,5.4325 0,0 -0.5625,-5.995 -5.71375,-8.7125 0,0 3.46625,3.655 3.65375,8.61875 0,0 -2.34375,-4.0275 -5.80875,-5.1525 0,0 3.84125,3.09125 4.7775,6.2775 0,0 -6.5575,-1.40625 -11.33625,-0.375 0,0 -3.18375,-0.93625 -7.30625,3.13875 0,0 -1.31125,1.45125 -2.20125,2.66875 0,0 -1.8275,2.3425 -2.76375,3.325 0,0 -1.78,1.87375 -2.295,3.04625 0,0 -2.90375,1.78 -6.0425,2.81 0,0 3.6525,2.435 5.43375,4.965 0,0 0.5625,0.14125 0.93625,-0.14125 0,0 0,0.42125 0.515,0.7025 0,0 0.375,0.47 1.21875,0.32875 0,0 1.21625,1.31125 6.04250005,1.265 l 2.71624995,0 c 0,0 3.84,-0.235 5.52625,0.14 0,0 -0.515,1.405 -1.26375,2.06125 0,0 -0.3275,2.67 4.5425,3.51375 0,0 4.31,2.2475 5.9025,0.655 z" />
      <path
         id="path9760"
         style="fill:#ffffff;fill-opacity:1;fill-rule:nonzero;stroke:none"
         d="m -0.33874495,791.0622 c 0,0 -0.0475,4.02875 -4.21500005,10.445 0,0 -2.15625,3.37375 -2.53,4.87125 0,0 0.5625,-0.42125 0.75,-0.4675 0,0 0.84375,-2.10875 2.57625,-4.87125 0,0 3.84000005,-5.99625 3.79375005,-10.16375 0,0 -0.235,-0.1425 -0.375,0.18625" />
      <path
         id="path9764"
         style="fill:#ffffff;fill-opacity:1;fill-rule:nonzero;stroke:none"
         d="m -9.23887,801.55407 c 0,0 1.17125,-0.51375 1.78125,-1.07625 0,0 -0.75,0.14 -1.4525,0.3275 0,0 -0.375,0.5625 -0.32875,0.74875" />
      <path
         id="path9768"
         style="fill:#ffffff;fill-opacity:1;fill-rule:nonzero;stroke:none"
         d="m 5.56213,789.28245 c 0,0 1.40625,1.03 -2.0125,4.87 0,0 3.41875,-2.43375 2.71625,-5.105 0,0 -0.60875,0.0487 -0.70375,0.235" />
      <path
         id="path9772"
         style="fill:#fcb131;fill-opacity:1;fill-rule:nonzero;stroke:none"
         d="m -48.20987,806.66033 c 0,0 4.59,8.15125 12.17875,10.96125 0,0 1.04125,1.3775 2.155,3.2775 0,0 2.3425,4.49625 8.1025,7.49625 0,0 7.0725,4.215 13.63125,3.5575 0,0 3.09125,0 5.29375,-1.96625 0,0 0.79625,-0.70125 2.20125,-1.9675 0,0 4.96375005,-0.42125 12.365,1.03 0,0 4.4975,1.0775 6.9325,1.21875 0,0 4.16875,0.84375 4.87125,-2.34125 0,0 1.5,-4.78 -2.57625,-10.96125 0,0 -2.7625,-5.6675 -9.78875,-3.93375 0,0 -1.59375,0.23375 -4.12375,0.93625 0,0 -4.26125,1.405 -7.165,0 0,0 -1.03,-0.32875 -2.155,-1.96875 0,0 -0.9375,-1.45125 -1.68625,-1.77875 0,0 -0.75,-0.75 -3.18375,-0.515 0,0 -1.8275,0.1875 -2.67125,-1.07875 0,0 -0.7025,-0.89 -0.1875,-3.13875 0,0 -0.61,-0.65375 -1.12375,-0.795 0,0 -4.21625,-0.28125 -7.0725,0.46875 0,0 -2.15625,0.515 -3.515,2.95 0,0 -6.415,-0.28 -12.08375,-3.325 0,0 -2.575,-4.68375 -4.82375,-6.98 0,0 -4.54375,-6.51 -7.26125,-3.88625 0,0 -2.06125,2.715 -0.28125,8.2425 0,0 1.03125,2.90625 1.9675,4.4975" />
      <path
         id="path9776"
         style="fill:none;stroke:#001522;stroke-width:1.25;stroke-linecap:butt;stroke-linejoin:miter;stroke-miterlimit:4;stroke-dasharray:none;stroke-opacity:1"
         d="m -48.20987,806.66033 c 0,0 4.59,8.15125 12.17875,10.96125 0,0 1.04125,1.3775 2.155,3.2775 0,0 2.3425,4.49625 8.1025,7.49625 0,0 7.0725,4.215 13.63125,3.5575 0,0 3.09125,0 5.29375,-1.96625 0,0 0.79625,-0.70125 2.20125,-1.9675 0,0 4.96375005,-0.42125 12.365,1.03 0,0 4.4975,1.0775 6.9325,1.21875 0,0 4.16875,0.84375 4.87125,-2.34125 0,0 1.5,-4.78 -2.57625,-10.96125 0,0 -2.7625,-5.6675 -9.78875,-3.93375 0,0 -1.59375,0.23375 -4.12375,0.93625 0,0 -4.26125,1.405 -7.165,0 0,0 -1.03,-0.32875 -2.155,-1.96875 0,0 -0.9375,-1.45125 -1.68625,-1.77875 0,0 -0.75,-0.75 -3.18375,-0.515 0,0 -1.8275,0.1875 -2.67125,-1.07875 0,0 -0.7025,-0.89 -0.1875,-3.13875 0,0 -0.61,-0.65375 -1.12375,-0.795 0,0 -4.21625,-0.28125 -7.0725,0.46875 0,0 -2.15625,0.515 -3.515,2.95 0,0 -6.415,-0.28 -12.08375,-3.325 0,0 -2.575,-4.68375 -4.82375,-6.98 0,0 -4.54375,-6.51 -7.26125,-3.88625 0,0 -2.06125,2.715 -0.28125,8.2425 0,0 1.03125,2.90625 1.9675,4.4975 z" />
      <path
         id="path9780"
         style="fill:#ffffff;fill-opacity:1;fill-rule:nonzero;stroke:none"
         d="m -7.599495,810.92182 c 0,0 -1.17125,0.37625 -1.64,-0.0925 0,0 -0.56125,-0.28125 -0.28,-1.265 l 0.7025,0 c 0,0 -0.14125,0.655 0.235,0.79625 0,0 0.655,0.14125 1.31125,-0.0925 0,0 -0.09375,0.515 -0.32875,0.65375" />
      <path
         id="path9784"
         style="fill:#ffffff;fill-opacity:1;fill-rule:nonzero;stroke:none"
         d="m -8.77012,810.31382 c 0,0 -1.12375,-3.0925 5.1525,-5.76125 0,0 -5.855,1.0775 -5.99625,5.6675 0,0 0.60875,0 0.84375,0.0937" />
      <path
         id="path9788"
         style="fill:#001522;fill-opacity:1;fill-rule:nonzero;stroke:none"
         d="m -5.724495,809.51683 c 0,0 -2.29625,1.26625 -2.8575,0.84375 0,0 -0.75,-0.14 0.3275,-2.295 0,0 2.53,0.98375 2.53,1.45125" />
      <path
         id="path9792"
         style="fill:none;stroke:#001522;stroke-width:1.25;stroke-linecap:butt;stroke-linejoin:miter;stroke-miterlimit:4;stroke-dasharray:none;stroke-opacity:1"
         d="m -5.724495,809.51683 c 0,0 -2.29625,1.26625 -2.8575,0.84375 0,0 -0.75,-0.14 0.3275,-2.295 0,0 2.53,0.98375 2.53,1.45125 z" />
      <path
         id="path9796"
         style="fill:#ffffff;fill-opacity:1;fill-rule:nonzero;stroke:none"
         d="m 6.87438,811.86058 c 0,0 0.7975,0 1.78,0.37375 0,0 -1.5925,0.14 -2.20125,0.1875 0,0 0.14,-0.65625 0.42125,-0.56125" />
      <path
         id="path9800"
         style="fill:#ffffff;fill-opacity:1;fill-rule:nonzero;stroke:none"
         d="m -8.58212,810.36032 c 0,0 1.265,0.65625 7.025,-2.99625 0,0 6.465,-4.17 9.9775,-3.88875 0,0 0.46875,4.30875 -0.515,8.75875 0,0 -0.375,0 -0.5625,-0.0462 0,0 0.98375,-3.84125 0.61,-8.385 0,0 -3.46625,0.28125 -9.22875,3.93375 0,0 -4.825,3.28 -6.885,3.2325 0,0 -0.14,-0.37375 -0.42125,-0.60875" />
      <path
         id="path9804"
         style="fill:#ffffff;fill-opacity:1;fill-rule:nonzero;stroke:none"
         d="m 6.03213,803.75633 c 0,0 5.43375,-1.265 8.57,-0.60875 0,0 -3.96,0.0525 -7.63375,0.84375 0,0 -1.12375,-0.0475 -0.93625,-0.235" />
      <path
         id="path9808"
         style="fill:#ffffff;fill-opacity:1;fill-rule:nonzero;stroke:none"
         d="m 16.75838,800.99257 c 0,0 -0.46875,-2.71625 -4.16875,-2.52875 0,0 -5.01375,0.14 -9.69625,4.0275 0,0 3.56,-4.215 9.64875,-4.59 0,0 4.30875,-0.23375 4.21625,3.09125" />
      <path
         id="path9812"
         style="fill:#ffffff;fill-opacity:1;fill-rule:nonzero;stroke:none"
         d="m 15.399755,796.72995 c 0,0 -2.24875,-0.655 -5.0125,0.515 0,0 2.43625,-2.2025 5.0125,-0.515" />
      <path
         id="path9816"
         style="fill:#001522;fill-opacity:1;fill-rule:nonzero;stroke:none"
         d="m -11.674245,807.36345 c 0,0 -1.03,1.07625 -2.295,0 0,0 -0.04625,-1.12375 0.235,-1.54625 0,0 0.93625,0.23375 2.06,1.54625" />
      <path
         id="path9820"
         style="fill:none;stroke:#001522;stroke-width:1.25;stroke-linecap:butt;stroke-linejoin:miter;stroke-miterlimit:4;stroke-dasharray:none;stroke-opacity:1"
         d="m -11.674245,807.36345 c 0,0 -1.03,1.07625 -2.295,0 0,0 -0.04625,-1.12375 0.235,-1.54625 0,0 0.93625,0.23375 2.06,1.54625 z" />
      <path
         id="path9824"
         style="fill:#001522;fill-opacity:1;fill-rule:nonzero;stroke:none"
         d="m -2.493245,811.71895 c 0,0 -0.515,2.38875 -2.71625,1.45125 0,0 -1.03125,-1.12375 -1.54625,-1.92 0,0 -0.46875,-0.51375 0.23375,-0.4675 0,0 1.17125,0.6075 4.02875,0.93625" />
      <path
         id="path9828"
         style="fill:none;stroke:#001522;stroke-width:1.25;stroke-linecap:butt;stroke-linejoin:miter;stroke-miterlimit:4;stroke-dasharray:none;stroke-opacity:1"
         d="m -2.493245,811.71895 c 0,0 -0.515,2.38875 -2.71625,1.45125 0,0 -1.03125,-1.12375 -1.54625,-1.92 0,0 -0.46875,-0.51375 0.23375,-0.4675 0,0 1.17125,0.6075 4.02875,0.93625 z" />
      <path
         id="path9832"
         style="fill:#001522;fill-opacity:1;fill-rule:nonzero;stroke:none"
         d="m -25.58537,808.4877 c 0,0 3.84,0.56125 6.97875,-0.60875 0,0 -2.435,0.2325 -6.65125,-0.1425 0,0 -0.5625,0.51625 -0.3275,0.75125" />
      <path
         id="path9836"
         style="fill:#001522;fill-opacity:1;fill-rule:nonzero;stroke:none"
         d="m -38.27937,804.7402 c 0,0 2.4825,4.075 4.07625,7.5875 0,0 -0.235,-2.6225 -2.905,-7.12 0,0 -1.0775,-0.74875 -1.17125,-0.4675" />
      <path
         id="path9840"
         style="fill:#001522;fill-opacity:1;fill-rule:nonzero;stroke:none"
         d="m -35.234995,818.0897 c 0,0 -8.89875,-15.78625 -14.145,-19.15875 0,0 5.6675,5.80875 12.78625,18.3625 0,0 1.17125,1.2175 1.35875,0.79625" />
      <path
         id="path9844"
         style="fill:none;stroke:#001522;stroke-width:1.25;stroke-linecap:butt;stroke-linejoin:miter;stroke-miterlimit:4;stroke-dasharray:none;stroke-opacity:1"
         d="m -4.788245,828.11295 c 0,0 3.13875,-3.27875 4.91750005,-5.105 0,0 4.54374995,-4.91875 7.91624995,-5.76125" />
      <path
         id="path9848"
         style="fill:#a44138;fill-opacity:1;fill-rule:nonzero;stroke:none"
         d="m 4.579505,819.12008 c 0,0 2.4825,-2.29625 4.7775,-1.87375 0,0 2.295,0.14 3.13875,1.87375 0,0 -3.93375,-0.84375 -7.91625,0" />
      <path
         id="path9852"
         style="fill:none;stroke:#001522;stroke-width:1.25;stroke-linecap:butt;stroke-linejoin:miter;stroke-miterlimit:4;stroke-dasharray:none;stroke-opacity:1"
         d="m 4.579505,819.12008 c 0,0 2.4825,-2.29625 4.7775,-1.87375 0,0 2.295,0.14 3.13875,1.87375 0,0 -3.93375,-0.84375 -7.91625,0 z" />
      <path
         id="path9856"
         style="fill:#001522;fill-opacity:1;fill-rule:nonzero;stroke:none"
         d="m 12.54213,818.41808 c 0,0 0.84375,0.93625 1.21875,2.2 0,0 -1.07875,-0.89 -1.87375,-1.405 0,0 0.42,-0.9825 0.655,-0.795" />
      <path
         id="path9860"
         style="fill:#001522;fill-opacity:1;fill-rule:nonzero;stroke:none"
         d="m 6.31288,815.98158 c 0,0 -2.8575,0.14 -5.47999995,3.325 0,0 1.68624995,-4.4025 5.47999995,-3.325" />
      <path
         id="path9864"
         style="fill:none;stroke:#001522;stroke-width:1.25;stroke-linecap:butt;stroke-linejoin:miter;stroke-miterlimit:4;stroke-dasharray:none;stroke-opacity:1"
         d="m 6.31288,815.98158 c 0,0 -2.8575,0.14 -5.47999995,3.325 0,0 1.68624995,-4.4025 5.47999995,-3.325 z" />
      <path
         id="path9868"
         style="fill:none;stroke:#001522;stroke-width:1.25;stroke-linecap:butt;stroke-linejoin:miter;stroke-miterlimit:4;stroke-dasharray:none;stroke-opacity:1"
         d="m -11.25312,813.12395 c 0,0 -0.0925,0.98375 0.095,1.82625 0,0 0.0925,1.17125 1.07625,1.0775 0,0 1.12375,-0.32625 0.14125,-1.49875 0,0 -0.60875,-0.655 -1.3125,-1.405 z" />
      <path
         id="path9872"
         style="fill:none;stroke:#001522;stroke-width:1.25;stroke-linecap:butt;stroke-linejoin:miter;stroke-miterlimit:4;stroke-dasharray:none;stroke-opacity:1"
         d="m -14.672245,810.40782 c 0,0 -0.655,0.42125 -1.405,0.32875 0,0 -1.2175,-0.0475 -1.12375,-0.61 0,0 -0.09375,-0.375 1.03,-0.0475 0,0 0.84375,0.28125 1.49875,0.32875 z" />
      <path
         id="path9876"
         style="fill:#ffffff;fill-opacity:1;fill-rule:nonzero;stroke:none"
         d="m -41.652245,863.80507 c 0,0 2.10875,-1.68625 3.13875,-2.57625 0,0 4.965,-4.0275 8.01,-5.2925 0,0 4.87125,-2.62375 8.6175,-0.23375 0,0 -4.07375,-1.7325 -8.33625,0.74875 0,0 -3.18625,1.21875 -7.73,5.19875 0,0 -1.82625,1.59375 -3.37125,2.9525 0,0 -0.375,-0.375 -0.32875,-0.7975" />
      <path
         id="path9880"
         style="fill:#ffffff;fill-opacity:1;fill-rule:nonzero;stroke:none"
         d="m -7.17712,873.87595 c 0,0 -0.235,3.325 -0.1875,4.87125 0,0 -0.235,7.54125 -4.77875,10.07 0,0 1.5475,-3.09125 1.21875,-5.15125 0,0 -3.79375,5.62125 -11.24125,0.89 0,0 2.83125,0.11875 3.84,-0.98375 0,0 -5.0575,-0.8425 -6.83875,-5.9025 0,0 1.68625,0.65625 2.8575,0.60875 0,0 -3.6525,-11.71 -11.00625,-20.375 l -0.51625,0.23375 c 0,0 6.6975,7.3075 10.7275,19.6725 0,0 -0.61125,-0.0462 -2.5775,-0.60875 0,0 0.1875,4.3575 6.4175,6.605 0,0 -2.62375,0.61 -4.21625,0.23375 0,0 6.23,5.6675 12.08625,0.93875 0,0 -0.75125,3.09 -1.6875,4.59 0,0 5.2,-0.70875 6.23125,-10.44625 0,0 0.13875,-3.46625 0.23375,-4.825 0,0 -0.28125,-0.42125 -0.5625,-0.42125" />
      <path
         id="path9884"
         style="fill:#ffffff;fill-opacity:1;fill-rule:nonzero;stroke:none"
         d="m -11.392245,884.22745 c 0,0 0.89,-0.9825 1.2175,-1.68625 0,0 0.14125,1.265 -1.2175,2.4375 l 0,-0.75125 z" />
      <path
         id="path9888"
         style="fill:#ffffff;fill-opacity:1;fill-rule:nonzero;stroke:none"
         d="m -18.934995,883.43158 c 0,0 0.89,0.235 1.5925,0.375 0,0 -0.28,0.4675 -1.92,0 0,0 0.04625,-0.4225 0.3275,-0.375" />
      <path
         id="path9892"
         style="fill:#ffffff;fill-opacity:1;fill-rule:nonzero;stroke:none"
         d="m -25.58537,855.0942 c 0,0 1.68625,3.7925 11.8975,14.00375 0,0 0.34375,-11.63875 -3.27875,-16.58125 0,0 -1.5925,-2.95125 -6.7925,-2.67 0,0 -3.36875,-0.06 -6.885,0.375 -3.99125,0.495 -8.57125,0.74875 -19.62625,4.21625 0,0 5.62125,-3.37375 20.33,-4.77875 0,0 8.36,-1.0375 11.1,0.42125 0,0 6.09,1.6875 5.62125,20.00125 0,0 -8.7475,-7.94125 -12.975,-15.03625 0,0 0.23375,-0.23375 0.60875,0.0488" />
      <path
         id="path9896"
         style="fill:#ffffff;fill-opacity:1;fill-rule:nonzero;stroke:none"
         d="m -29.45012,849.86957 c 0,0 -1.71625,-3.8375 -4.3325,-4.52 0,0 -1.72875,-0.7425 -4.9175,1.78125 -2.7025,2.1375 -5.1525,4.4025 -5.66875,5.4325 0,0 -0.60875,0.0475 -0.8425,0.0937 0,0 2.6225,-3.18375 6.135,-5.855 0,0 3.2275,-2.79375 5.62125,-1.8725 0,0 2.2025,0.23375 4.59,4.87 0,0 -0.3975,0.165 -0.585,0.07" />
      <path
         id="path9900"
         style="fill:#ffffff;fill-opacity:1;fill-rule:nonzero;stroke:none"
         d="m -34.016745,844.9757 c 0,0 5.62,-3.70125 13.115,-4.87125 0,0 -5.62,-0.4225 -13.865,4.9175 0,0 0.4675,-0.14 0.75,-0.0462" />
      <path
         id="path9904"
         style="fill:#ffffff;fill-opacity:1;fill-rule:nonzero;stroke:none"
         d="m -17.85712,838.51095 c 0,0 -0.79625,1.875 -1.03125,3.7475 0,0 -0.27375,-1.42125 0.61,-3.93375 0,0 0.32875,0.0937 0.42125,0.18625" />
      <path
         id="path9908"
         style="fill:#ffffff;fill-opacity:1;fill-rule:nonzero;stroke:none"
         d="m -23.75912,835.0917 c 0,0 1.26625,0.28125 1.92,0.985 0,0 -0.46875,-1.0775 -2.2475,-1.4525 0,0 0.0925,0.32875 0.3275,0.4675" />
      <path
         id="path9912"
         style="fill:#ffffff;fill-opacity:1;fill-rule:nonzero;stroke:none"
         d="m -48.911745,869.00532 c 0,0 -1.3125,0.795 -3.7,0.655 0,0 1.96625,0.65625 4.82375,-0.46875 0,0 -0.985,-0.18625 -1.12375,-0.18625" />
      <path
         id="path9916"
         style="fill:#ffffff;fill-opacity:1;fill-rule:nonzero;stroke:none"
         d="m -13.734745,869.56682 c 0,0 0.60875,0.70375 1.21875,1.265 0,0 0.185,-0.56125 -1.0325,-1.68625 0,0 -0.515,0.235 -0.18625,0.42125" />
      <path
         id="path9920"
         style="fill:#ffffff;fill-opacity:1;fill-rule:nonzero;stroke:none"
         d="m -16.732745,852.14133 c 0,0 0.9825,-0.7025 2.57625,-3.23125 0,0 0.28125,0.7975 -2.24875,3.79375 l -0.3275,-0.5625 z" />
      <path
         id="path9924"
         style="fill:#ffffff;fill-opacity:1;fill-rule:nonzero;stroke:none"
         d="m -18.70062,908.02257 c 0,0 0.655,0.75 2.52875,1.78 0,0 -1.405,-0.0925 -2.9975,-1.405 0,0 0.33,-0.46875 0.46875,-0.375" />
      <path
         id="path9928"
         style="fill:#ffffff;fill-opacity:1;fill-rule:nonzero;stroke:none"
         d="m 0.03600505,907.2267 c 0,0 1.40499995,-0.32875 2.90374995,-0.32875 0,0 -1.78,0.42125 -3.04499995,0.84375 0,0 0.1875,-0.37625 0.14125,-0.515" />
      <path
         id="path9932"
         style="fill:#ffffff;fill-opacity:1;fill-rule:nonzero;stroke:none"
         d="m 9.824755,898.60857 c 0,0 0.14125,-2.4825 -0.42125,-4.31 0,0 0.89,0.8425 0.9375,3.84125 0,0 -0.32875,0.37375 -0.51625,0.46875" />
      <path
         id="path9936"
         style="fill:#ffffff;fill-opacity:1;fill-rule:nonzero;stroke:none"
         d="m 5.797755,875.60932 c 0,0 1.5925,1.78 1.87375,5.9025 0,0 0.4675,-2.76375 -0.89,-5.2475 0,0 -0.5625,-0.8425 -0.98375,-0.655" />
      <path
         id="path9940"
         style="fill:#ffffff;fill-opacity:1;fill-rule:nonzero;stroke:none"
         d="m -2.212495,878.98207 c 0,0 1.40500005,1.63875 2.15625005,2.34125 0,0 2.19874995,2.06 3.18374995,4.825 0,0 0.14,-2.2475 -2.85749995,-5.29375 0,0 -1.26375,-1.35875 -1.82750005,-1.82625 0,0 -0.60875,-0.1875 -0.655,-0.0462" />
      <path
         id="path9944"
         style="fill:#ffffff;fill-opacity:1;fill-rule:nonzero;stroke:none"
         d="m 0.12875505,879.5912 c 0,0 1.40624995,0.4675 2.06124995,1.02875 0,0 -0.37375,-0.79375 -1.87374995,-1.45125 0,0 -0.28,0.28125 -0.1875,0.4225" />
      <path
         id="path9948"
         style="fill:#ffffff;fill-opacity:1;fill-rule:nonzero;stroke:none"
         d="m -6.14687,834.20182 c 0,0 -5.95,0.60875 -8.1975,-1.59125 0,0 -1.92,2.7625 -2.81,5.245 0,0 1.5,2.1075 7.72875,0.84375 0,0 1.63875,-3.185 3.27875,-4.4975" />
      <path
         id="path9952"
         style="fill:none;stroke:#001522;stroke-width:1.25;stroke-linecap:butt;stroke-linejoin:miter;stroke-miterlimit:4;stroke-dasharray:none;stroke-opacity:1"
         d="m -6.14687,834.20182 c 0,0 -5.95,0.60875 -8.1975,-1.59125 0,0 -1.92,2.7625 -2.81,5.245 0,0 1.5,2.1075 7.72875,0.84375 0,0 1.63875,-3.185 3.27875,-4.4975 z" />
      <path
         id="path9956"
         style="fill:#ffffff;fill-opacity:1;fill-rule:nonzero;stroke:none"
         d="m -8.39537,838.46457 c 0,0 -3.7475,1.49875 -5.01125,4.54375 0,0 0.7025,-3.23125 5.01125,-5.0125 l 0,0.46875 z" />
    </g>
  </g>
</svg>
